<svg width="375" height="667" xmlns="http://www.w3.org/2000/svg">
  <defs>
    <linearGradient id="grad2" x1="0%" y1="0%" x2="100%" y2="100%">
      <stop offset="0%" style="stop-color:#f093fb;stop-opacity:1" />
      <stop offset="100%" style="stop-color:#f5576c;stop-opacity:1" />
    </linearGradient>
  </defs>
  
  <!-- Phone Frame -->
  <rect width="375" height="667" rx="30" fill="#1a202c"/>
  
  <!-- Screen -->
  <rect x="10" y="10" width="355" height="647" rx="25" fill="url(#grad2)"/>
  
  <!-- Status Bar -->
  <rect x="20" y="20" width="335" height="30" fill="#2d3748" opacity="0.8"/>
  <text x="35" y="40" font-family="Arial, sans-serif" font-size="14" fill="#ffffff">9:41</text>
  <circle cx="320" cy="35" r="4" fill="#48bb78"/>
  <circle cx="335" cy="35" r="4" fill="#48bb78"/>
  <circle cx="350" cy="35" r="4" fill="#48bb78"/>
  
  <!-- Content -->
  <rect x="20" y="60" width="335" height="587" rx="0 0 20 20" fill="#ffffff" opacity="0.95"/>
  
  <!-- Header -->
  <rect x="35" y="80" width="120" height="25" rx="4" fill="#e2e8f0"/>
  <circle cx="330" cy="92" r="15" fill="#f093fb"/>
  
  <!-- Content Blocks -->
  <rect x="35" y="130" width="305" height="15" rx="4" fill="#cbd5e0"/>
  <rect x="35" y="155" width="280" height="15" rx="4" fill="#cbd5e0"/>
  <rect x="35" y="180" width="290" height="15" rx="4" fill="#cbd5e0"/>
  
  <rect x="35" y="220" width="305" height="150" rx="8" fill="#e2e8f0"/>
  <rect x="35" y="390" width="305" height="150" rx="8" fill="#e2e8f0"/>
  
  <!-- Bottom Navigation -->
  <rect x="35" y="570" width="305" height="60" rx="8" fill="#f7fafc"/>
  <circle cx="90" cy="600" r="12" fill="#cbd5e0"/>
  <circle cx="187" cy="600" r="12" fill="#f093fb"/>
  <circle cx="284" cy="600" r="12" fill="#cbd5e0"/>
  
  <!-- Text Label -->
  <text x="187" y="320" font-family="Arial, sans-serif" font-size="32" fill="#2d3748" text-anchor="middle" opacity="0.3">
    Mobile
  </text>
  <text x="187" y="350" font-family="Arial, sans-serif" font-size="18" fill="#4a5568" text-anchor="middle" opacity="0.3">
    375 × 667
  </text>
</svg>
